<svg enable-background="new 0 0 300 300" viewBox="0 0 300 300" xmlns="http://www.w3.org/2000/svg"><path d="m150 2c-81.7 0-148 66.3-148 148s66.3 148 148 148 148-66.3 148-148-66.3-148-148-148zm84.2 92.6 25.6-14.8c2.8-1.6 6.5-.7 8.1 2.2 1.6 2.8.7 6.5-2.2 8.1l-25.6 14.8c-2.8 1.6-6.5.7-8.1-2.2-1.6-2.8-.6-6.5 2.2-8.1zm-90.1-74.8c0-3.3 2.7-5.9 5.9-5.9 3.3 0 5.9 2.7 5.9 5.9v29.6c0 3.3-2.7 5.9-5.9 5.9-3.3 0-5.9-2.7-5.9-5.9zm-62.2 12.3c2.8-1.6 6.5-.7 8.1 2.2l14.8 25.6c1.6 2.8.7 6.4-2.2 8.1-2.8 1.6-6.5.7-8.1-2.2l-14.7-25.6c-1.7-2.9-.7-6.5 2.1-8.1zm-68.1 117.9c0-3.3 2.7-5.9 5.9-5.9h29.6c3.3 0 5.9 2.6 5.9 5.9s-2.7 5.9-5.9 5.9h-29.6c-3.2 0-5.9-2.6-5.9-5.9zm52 55.4-25.6 14.8c-2.8 1.6-6.5.7-8.1-2.2-1.6-2.8-.7-6.5 2.2-8.1l25.6-14.8c2.8-1.6 6.5-.7 8.1 2.2s.6 6.5-2.2 8.1zm2.2-102.8c-1.6 2.8-5.3 3.8-8.1 2.2l-25.6-14.8c-2.8-1.6-3.8-5.3-2.2-8.1s5.3-3.8 8.1-2.2l25.6 14.8c2.8 1.7 3.8 5.3 2.2 8.1zm36.8 137.5-14.8 25.6c-1.6 2.8-5.3 3.8-8.1 2.2s-3.8-5.3-2.2-8.1l14.8-25.6c1.6-2.8 5.3-3.8 8.1-2.2 2.9 1.7 3.8 5.3 2.2 8.1zm51.1 40.1c0 3.3-2.7 5.9-5.9 5.9-3.3 0-5.9-2.7-5.9-5.9v-29.6c0-3.3 2.6-5.9 5.9-5.9s5.9 2.7 5.9 5.9zm62.1-12.3c-2.8 1.6-6.5.7-8.1-2.2l-14.8-25.6c-1.6-2.8-.7-6.5 2.2-8.1 2.8-1.6 6.5-.7 8.1 2.2l14.8 25.6c1.6 2.9.7 6.5-2.2 8.1zm2.3-227.7-14.8 25.6c-1.6 2.8-5.3 3.8-8.1 2.2s-3.8-5.3-2.2-8.1l14.8-25.6c1.6-2.8 5.3-3.8 8.1-2.2 2.9 1.7 3.8 5.3 2.2 8.1zm47.6 177.9c-1.6 2.8-5.3 3.8-8.1 2.2l-25.6-14.8c-2.8-1.6-3.8-5.3-2.2-8.1s5.3-3.8 8.1-2.2l25.6 14.8c2.9 1.7 3.8 5.3 2.2 8.1zm12.3-62.1h-29.6c-3.3 0-5.9-2.6-5.9-5.9s2.7-5.9 5.9-5.9h29.6c3.3 0 5.9 2.7 5.9 5.9.1 3.2-2.6 5.9-5.9 5.9z" fill="#fff"/></svg>